<svg width="17" height="11" viewBox="0 0 17 11" fill="none" xmlns="http://www.w3.org/2000/svg">
<path d="M16.0572 1.28541C15.8345 1.06279 15.5325 0.937727 15.2177 0.937727C14.9028 0.937727 14.6008 1.06279 14.3781 1.28541L8.49997 7.16354L2.62185 1.28541C2.39788 1.0691 2.09792 0.949405 1.78656 0.95211C1.4752 0.954817 1.17736 1.0797 0.95719 1.29988C0.737017 1.52005 0.61213 1.81789 0.609425 2.12925C0.606719 2.44061 0.726413 2.74057 0.942725 2.96454L7.66041 9.68222C7.8831 9.90485 8.18509 10.0299 8.49997 10.0299C8.81486 10.0299 9.11685 9.90485 9.33954 9.68222L16.0572 2.96454C16.2798 2.74185 16.4049 2.43986 16.4049 2.12497C16.4049 1.81009 16.2798 1.5081 16.0572 1.28541Z" fill="#117474"/>
</svg>
