<svg width="8" height="16" viewBox="0 0 8 16" fill="none" xmlns="http://www.w3.org/2000/svg">
<path d="M1.00149 6.33288H7.00149C7.06224 6.33269 7.12179 6.31593 7.17372 6.28442C7.22565 6.25291 7.26801 6.20782 7.29623 6.15403C7.32444 6.10023 7.33746 6.03976 7.33386 5.97912C7.33027 5.91848 7.3102 5.85997 7.27583 5.80988L4.27583 1.47655C4.15149 1.29688 3.85216 1.29688 3.72749 1.47655L0.727493 5.80988C0.692768 5.85986 0.672405 5.9184 0.668615 5.97914C0.664825 6.03989 0.677755 6.10051 0.705998 6.15442C0.734241 6.20833 0.776719 6.25346 0.828815 6.28493C0.880911 6.31639 0.940633 6.33298 1.00149 6.33288Z" fill="#0D2E57"/>
<path d="M6.99851 9.66712H0.998507C0.937759 9.66731 0.878214 9.68407 0.826281 9.71558C0.774348 9.74709 0.731993 9.79218 0.703774 9.84597C0.675557 9.89977 0.662544 9.96024 0.666139 10.0209C0.669733 10.0815 0.689798 10.14 0.724173 10.1901L3.72417 14.5235C3.84851 14.7031 4.14784 14.7031 4.27251 14.5235L7.27251 10.1901C7.30723 10.1401 7.3276 10.0816 7.33138 10.0209C7.33517 9.96011 7.32225 9.89949 7.294 9.84558C7.26576 9.79167 7.22328 9.74654 7.17119 9.71507C7.11909 9.68361 7.05937 9.66702 6.99851 9.66712Z" fill="#0D2E57"/>
</svg>
