<svg width="8" height="7" viewBox="0 0 8 7" fill="none" xmlns="http://www.w3.org/2000/svg">
<path d="M1.19388 0.500001L6.80612 0.500001C7.02769 0.499677 7.24481 0.562701 7.43237 0.681777C7.61992 0.800853 7.77024 0.971113 7.86591 1.17285C7.97791 1.41221 8.02105 1.67852 7.99041 1.94142C7.95977 2.20433 7.85659 2.45326 7.69261 2.65985L4.88649 6.09137C4.77637 6.21964 4.64022 6.32251 4.48727 6.39301C4.33432 6.46351 4.16814 6.5 4 6.5C3.83186 6.5 3.66568 6.46351 3.51273 6.39301C3.35978 6.32251 3.22363 6.21964 3.11351 6.09137L0.307385 2.65985C0.143413 2.45326 0.0402279 2.20433 0.00958776 1.94142C-0.0210524 1.67852 0.0220871 1.41221 0.134087 1.17285C0.229763 0.971113 0.380078 0.800853 0.567633 0.681777C0.755188 0.562701 0.972315 0.499677 1.19388 0.500001Z" fill="black"/>
</svg>
