<svg width="24" height="25" viewBox="0 0 24 25" fill="none" xmlns="http://www.w3.org/2000/svg">
<path fill-rule="evenodd" clip-rule="evenodd" d="M23.9755 13.3517C23.9755 15.1046 21.2727 16.5256 17.9386 16.5256C14.6045 16.5256 11.9016 15.1046 11.9016 13.3517C11.9016 11.5988 14.6045 10.1777 17.9386 10.1777C21.2727 10.1777 23.9755 11.5988 23.9755 13.3517ZM11.9016 15.7321V18.1125C12.5305 19.0383 14.1655 20.8897 17.9386 20.8897C19.8251 20.8897 22.7681 20.3343 23.9755 18.1125V16.6669L24 15.9516C23.8471 16.2329 22.9947 16.7043 22.918 16.7345C21.7508 17.4752 19.8918 18.1125 18.3159 18.1125C16.052 18.1125 14.0145 17.9538 11.9016 15.7321ZM11.9016 22.08V19.6995C14.0145 21.9213 16.052 22.08 18.3159 22.08C20.5797 22.08 23.4724 20.6253 23.9755 19.6995V22.08C22.7681 24.3017 19.8251 24.8572 17.9386 24.8572C14.1655 24.8572 12.5305 23.0057 11.9016 22.08Z" fill="#117474"/>
<path d="M15.541 0L17.6065 9.1991H16.5481L15.4286 4.28572L2.57143 6.42858L6 22.2857L10.7143 21.4286L10.7213 22.5084L4.7213 23.7806L0 2.25084L15.541 0Z" fill="#117474"/>
<path d="M14.6556 7.0459L4.03271 8.80743L4.42616 10.569L15.0491 8.70956L14.6556 7.0459Z" fill="#117474"/>
<path d="M5.01632 13.3091L10.7212 12.3305C10.6425 12.7219 10.6884 13.6679 10.7212 14.092L5.40976 15.0706L5.01632 13.3091Z" fill="#117474"/>
<path d="M6 17.8112L10.7213 16.9304C10.6426 17.4785 10.6885 18.3984 10.7213 18.7898L6.39344 19.6706L6 17.8112Z" fill="#117474"/>
</svg>
