<svg width="25" height="25" viewBox="0 0 25 25" fill="none" xmlns="http://www.w3.org/2000/svg">
<path d="M19.0763 16.4764L19.8375 17.2429C21.4157 15.9946 22.6493 14.3621 23.4191 12.5001C21.644 8.20811 17.4254 5.18758 12.5 5.18758C11.096 5.18758 9.74871 5.43501 8.49926 5.8825L9.34842 6.72615C10.3517 6.43395 11.4158 6.27092 12.4999 6.27091L19.0763 16.4764ZM19.0763 16.4764C20.3662 15.4747 21.4135 14.191 22.1362 12.7206L22.2444 12.5004L22.1365 12.2801C21.2533 10.4772 19.882 8.95827 18.1784 7.89597C16.4749 6.83369 14.5075 6.27067 12.5 6.27091L19.0763 16.4764ZM2.75548 12.4996L2.86378 12.2794C3.51878 10.9476 4.4253 9.78954 5.50758 8.86031L5.85969 8.55799L6.18737 8.88663L9.72903 12.4387L9.85335 12.5634L9.87211 12.7385C9.93763 13.3497 10.2104 13.9202 10.6452 14.3549C11.0799 14.7896 11.6503 15.0624 12.2616 15.1279L12.4377 15.1468L12.5626 15.2723L14.9376 17.6577L15.5786 18.3015L14.6918 18.4986C13.9966 18.6531 13.2516 18.7292 12.5 18.7292L2.75548 12.4996ZM2.75548 12.4996L2.86344 12.72M2.75548 12.4996L2.86344 12.72M2.86344 12.72C3.74663 14.523 5.11794 16.0419 6.82147 17.1042M2.86344 12.72L6.82147 17.1042M6.82147 17.1042C8.52499 18.1665 10.4924 18.7295 12.5 18.7292L6.82147 17.1042ZM20.1276 21.5848L19.509 22.2083L16.6556 19.3549L16.4377 19.137L16.1452 19.2337C14.9983 19.6126 13.7805 19.8126 12.5 19.8126C7.57431 19.8126 3.35561 16.7919 1.58064 12.4996C2.27322 10.8172 3.34391 9.33318 4.69455 8.14654L5.09524 7.79451L4.7181 7.41736L2.79179 5.49105L3.41524 4.87247L20.1276 21.5848ZM12.4992 9.87508H12.5C13.1962 9.87508 13.8638 10.1516 14.3561 10.6439C14.8484 11.1362 15.125 11.8039 15.125 12.5001L15.125 12.5008C15.125 12.5045 15.125 12.5081 15.125 12.5117L12.4883 9.87509C12.492 9.87508 12.4956 9.87508 12.4992 9.87508Z" fill="#CED3DB" stroke="#CED3DB"/>
</svg>
