<svg width="40" height="39" viewBox="0 0 40 39" fill="none" xmlns="http://www.w3.org/2000/svg">
<path d="M9.04701 20.5278C9.08743 16.9769 10.4395 13.9754 13.1032 11.5746C15.1302 9.74879 17.5453 8.70152 20.304 8.4644C23.4608 8.19369 26.3367 8.97223 28.8508 10.8435C31.652 12.9301 33.3051 15.7044 33.7194 19.1466C34.065 22.0157 33.386 24.6576 31.8116 27.0861C31.6944 27.2659 31.6964 27.3627 31.854 27.5149C33.487 29.1016 35.1139 30.6962 36.7408 32.2888C37.6483 33.178 38.5476 34.0771 39.4652 34.9564C39.9098 35.3832 40.0149 35.895 39.8936 36.4522C39.6187 37.7109 38.4102 38.7977 37.1147 38.9835C36.5832 39.0586 36.1426 38.8946 35.7607 38.5191C33.3456 36.1499 30.9244 33.7847 28.5032 31.4194C28.3597 31.2791 28.2082 31.1447 28.0728 30.9965C27.9535 30.8661 27.8525 30.8543 27.6928 30.9452C26.3165 31.7415 24.8351 32.2612 23.2506 32.4884C21.0538 32.8026 18.9196 32.5615 16.8521 31.7672C15.1363 31.1072 13.6509 30.1133 12.3978 28.7973C10.5082 26.8154 9.40271 24.4758 9.10764 21.7746C9.06318 21.3597 9.05712 20.9447 9.04297 20.5258L9.04701 20.5278ZM21.5975 28.2815C25.8092 28.3428 29.5541 24.9026 29.5461 20.4981C29.538 16.3585 26.1629 12.7523 21.6237 12.7365C17.0926 12.7207 13.6569 16.2814 13.6347 20.4646C13.6125 24.8236 17.1573 28.2835 21.5975 28.2796V28.2815Z" fill="#117474"/>
<path d="M9.70075 13.0379C10.107 13.0379 10.5152 13.0379 10.9214 13.0379C11.1296 13.0379 11.168 13.113 11.0467 13.281C10.2404 14.4073 9.61182 15.6166 9.21975 16.9425C8.68014 18.7663 8.51442 20.6119 8.82969 22.493C8.8499 22.6096 8.94893 22.7716 8.83374 22.8467C8.72056 22.9198 8.60334 22.7776 8.49421 22.7163C7.6373 22.2223 6.8673 21.6216 6.14378 20.9557C5.95178 20.7798 5.97402 20.683 6.18824 20.5506C6.65711 20.2621 7.11386 19.9519 7.61103 19.7089C7.78888 19.6219 7.87578 19.5211 7.7242 19.3334C7.66357 19.2583 7.63326 19.1556 7.5989 19.0627C7.47966 18.7387 7.47764 18.7307 7.17853 18.8928C6.62882 19.1892 6.07911 19.4875 5.58396 19.8709C5.39803 20.0151 5.26262 20.0369 5.08477 19.8175C3.89238 18.3355 3.07589 16.6836 2.66361 14.842C2.61915 14.6444 2.54235 14.5654 2.32408 14.5436C1.47121 14.4606 0.79822 13.9172 0.600162 13.1842C0.383914 12.3898 0.656749 11.6053 1.31964 11.139C1.57024 10.9632 1.8451 10.8308 2.15633 10.8011C2.34833 10.7833 2.4514 10.7122 2.47768 10.5067C2.64138 9.24207 3.00718 8.03277 3.56902 6.88077C3.89844 6.20103 4.29456 5.56081 4.73918 4.94628C4.84023 4.80796 4.93724 4.77635 5.08275 4.887C5.76181 5.40471 6.48129 5.86314 7.23512 6.27217C7.47764 6.40456 7.72622 6.52312 7.97683 6.63772C8.13447 6.70886 8.16074 6.79778 8.10415 6.95981C7.63932 8.27384 7.36851 9.62541 7.28363 11.0145C7.26746 11.2852 7.22704 11.554 7.24118 11.8247C7.25129 12.0539 7.1462 12.1211 6.92591 12.1191C6.18622 12.1112 5.44653 12.1152 4.70684 12.1171C4.4522 12.1171 4.34306 12.2363 4.37944 12.4748C4.38954 12.5459 4.40369 12.619 4.40369 12.6902C4.40167 13.0814 4.39965 13.0814 4.81396 13.0834C5.52535 13.0834 6.23876 13.0913 6.95016 13.0794C7.19672 13.0755 7.28565 13.1506 7.29979 13.4015C7.36245 14.5792 7.61103 15.7273 7.94247 16.8595C7.99502 17.0413 8.05767 17.0848 8.21733 16.9445C8.32646 16.8496 8.45783 16.7666 8.59526 16.7212C8.80948 16.65 8.82161 16.5295 8.76906 16.3457C8.48006 15.3518 8.30019 14.3401 8.22339 13.3086C8.20722 13.0933 8.28402 13.036 8.48208 13.0379C8.8883 13.0439 9.29655 13.0379 9.70277 13.0379H9.70075Z" fill="#117474"/>
<path d="M17.0256 0.03125C17.3672 0.0411299 17.6966 0.132025 18.024 0.211065C19.9581 0.687277 21.678 1.57647 23.1897 2.84308C23.6303 3.21258 24.0163 3.64335 24.4306 4.04447C24.5801 4.18872 24.4973 4.26974 24.3679 4.36458C23.8647 4.73409 23.3291 5.0542 22.7794 5.35653C22.4945 5.51263 22.4945 5.51658 22.7026 5.76358C22.7491 5.81891 22.7976 5.87424 22.838 5.93549C23.0604 6.26153 23.0543 6.25165 23.3938 6.07183C23.9395 5.78136 24.4407 5.42569 24.95 5.08384C25.1096 4.97714 25.1966 4.99887 25.3037 5.153C26.1565 6.36428 26.775 7.67831 27.1509 9.10102C27.1711 9.1761 27.2357 9.27095 27.167 9.33023C27.0902 9.39939 27.0175 9.30059 26.9467 9.26898C25.4714 8.609 23.9395 8.19206 22.3085 8.08339C20.5341 7.96483 18.8263 8.20194 17.157 8.7651C16.6497 8.93701 16.1586 9.14844 15.6837 9.39346C15.4836 9.49819 15.3927 9.45669 15.3987 9.22946C15.4048 8.98641 15.4028 8.74139 15.3987 8.49637C15.3947 8.32643 15.4391 8.23751 15.6473 8.23158C16.8134 8.19602 17.9654 8.03596 19.1012 7.77118C19.3296 7.71783 19.469 7.65262 19.3518 7.39574C19.2669 7.21198 19.3801 6.92743 19.176 6.83259C19.0062 6.75355 18.79 6.90372 18.5919 6.94917C17.6259 7.1685 16.6416 7.24754 15.6554 7.32066C15.4957 7.33251 15.4068 7.27323 15.4028 7.1112C15.4007 7.03809 15.3987 6.96695 15.3987 6.89384C15.3987 4.742 15.3987 2.59015 15.3987 0.440279C15.3987 0.377047 15.3987 0.313816 15.4007 0.250584C15.4068 0.104361 15.4755 0.0727457 15.5948 0.161665C15.815 0.327648 16.0414 0.485726 16.2475 0.665541C17.5531 1.80371 18.6727 3.09403 19.5458 4.58194C19.6752 4.80128 19.7924 5.02654 19.9056 5.25378C19.9763 5.39802 20.0592 5.44545 20.2067 5.34467C20.2896 5.28934 20.3845 5.24785 20.4775 5.20635C20.8655 5.03642 20.8575 5.04235 20.6634 4.67876C19.7762 3.02091 18.6141 1.57054 17.2156 0.296032C17.1489 0.234776 17.0883 0.167593 17.0256 0.0984335C17.0175 0.0885535 17.0256 0.0648417 17.0256 0.03125Z" fill="#117474"/>
<path d="M10.0921 12.1263C9.52826 12.1263 8.9644 12.1144 8.40054 12.1322C8.18429 12.1381 8.18227 12.0295 8.18024 11.8832C8.17216 11.1679 8.253 10.4566 8.36416 9.75312C8.49148 8.9489 8.67337 8.15653 8.94419 7.38392C9.01694 7.17841 9.09576 7.1053 9.32009 7.19225C10.7328 7.73169 12.2041 8.03204 13.7097 8.18419C13.7744 8.19012 13.8391 8.2 13.9037 8.2C14.5019 8.2079 14.4555 8.16245 14.4575 8.77896C14.4575 9.14057 14.4534 9.50217 14.4575 9.86378C14.4575 10.014 14.4029 10.1187 14.2736 10.2017C13.4854 10.7134 12.776 11.3161 12.1374 11.9978C12.0383 12.1026 11.9171 12.1164 11.7837 12.1164C11.2198 12.1164 10.656 12.1164 10.0921 12.1164C10.0921 12.1204 10.0921 12.1243 10.0921 12.1283V12.1263Z" fill="#117474"/>
<path d="M14.5033 3.60855C14.5033 4.71905 14.4973 5.83153 14.5074 6.94203C14.5094 7.19693 14.4285 7.30166 14.1577 7.28585C13.028 7.22064 11.9225 7.02897 10.8352 6.72467C10.4371 6.61204 10.047 6.46384 9.65089 6.34528C9.43868 6.28205 9.39624 6.18325 9.48516 5.98763C10.0389 4.76647 10.7402 3.63621 11.6072 2.60277C12.3772 1.68591 13.2341 0.854023 14.1941 0.124885C14.2669 0.0695571 14.3356 -0.0292421 14.4285 0.00830163C14.5458 0.0537493 14.4993 0.182188 14.5013 0.275059C14.5033 1.38556 14.5013 2.49804 14.5013 3.60855H14.5033Z" fill="#117474"/>
<path d="M12.7377 0.0996654C12.2526 0.56995 11.7838 1.01455 11.3472 1.49273C10.2235 2.72575 9.3343 4.10301 8.64311 5.60278C8.54611 5.81026 8.46728 5.85373 8.25508 5.75098C7.34158 5.30638 6.48064 4.7788 5.66819 4.1781C5.52875 4.07535 5.53279 3.99235 5.64798 3.87182C7.0546 2.3681 8.74012 1.27538 10.6944 0.573902C11.2421 0.376303 11.804 0.23008 12.3719 0.103617C12.479 0.0799055 12.5861 0.0443378 12.7377 0.0996654Z" fill="#117474"/>
<path d="M27.0537 15.5305C26.9021 16.0522 26.7283 16.566 26.4999 17.0619C26.0695 17.9966 25.5642 18.8858 24.9054 19.688C24.7841 19.8342 24.6972 19.85 24.5416 19.7453C23.618 19.1249 22.6378 18.6012 21.603 18.1764C21.4454 18.1112 21.3949 18.0341 21.4636 17.8662C21.9102 16.7695 22.179 15.6254 22.3528 14.4596C22.4054 14.1118 22.4296 13.7601 22.4579 13.4083C22.4721 13.2364 22.5145 13.1534 22.7267 13.187C24.3658 13.4479 25.7764 14.1454 26.9506 15.2954C27.0173 15.3606 27.084 15.4258 27.0557 15.5305H27.0537Z" fill="#117474"/>
<path d="M15.3985 21.033C15.3985 20.0747 15.3985 19.1163 15.3985 18.158C15.3985 17.83 15.4369 17.824 15.7724 17.8379C16.9042 17.8833 18.0157 18.0434 19.1131 18.3101C19.3738 18.3734 19.6285 18.4564 19.8852 18.5255C20.0711 18.5769 20.1135 18.6698 20.0266 18.8456C19.4042 20.1182 18.5958 21.2721 17.6257 22.3115C17.0355 22.9458 16.4171 23.5583 15.7057 24.0701C15.6309 24.1235 15.5622 24.248 15.4511 24.1847C15.3642 24.1353 15.3965 24.0207 15.3965 23.9318C15.3965 22.9655 15.3965 21.9973 15.3965 21.0311L15.3985 21.033Z" fill="#117474"/>
<path d="M15.3988 16.5141C15.3746 16.3323 15.4554 16.1644 15.5888 15.9984C16.6336 14.6982 17.9736 13.8268 19.5904 13.3604C20.1603 13.1964 20.7545 13.1609 21.3426 13.0996C21.482 13.0858 21.5406 13.1451 21.5305 13.2913C21.4416 14.7456 21.1102 16.1505 20.609 17.5199C20.5402 17.7056 20.4453 17.7451 20.2533 17.6859C19.2367 17.3776 18.204 17.1306 17.1409 17.0259C16.6902 16.9824 16.2416 16.931 15.7868 16.933C15.421 16.935 15.3988 16.9054 15.3988 16.5121V16.5141Z" fill="#117474"/>
<path d="M16.9922 24.232C17.1761 24.0582 17.36 23.8843 17.5439 23.7104C18.9324 22.4102 20.056 20.9183 20.8826 19.219C20.9958 18.9878 21.1009 18.9483 21.3454 19.053C22.2225 19.4245 23.0491 19.8829 23.8495 20.3907C24.1304 20.5686 24.1304 20.5804 23.906 20.8017C22.0912 22.5959 19.9166 23.7341 17.3903 24.238C17.2731 24.2617 17.1559 24.2735 17.0366 24.2913C17.0225 24.2716 17.0063 24.2518 16.9922 24.232Z" fill="#117474"/>
<path d="M14.4773 18.1719V22.8332C14.451 22.8332 14.4267 22.8332 14.4005 22.8332C13.8487 21.2781 13.8932 19.721 14.4773 18.1719Z" fill="#117474"/>
</svg>
