<svg width="78" height="17" viewBox="0 0 78 17" fill="none" xmlns="http://www.w3.org/2000/svg">
<g clip-path="url(#clip0_40002001_3802)">
<path d="M17.1102 8.94794C17.1279 7.40014 17.7204 6.09178 18.8876 5.04527C19.7759 4.2494 20.8342 3.7929 22.043 3.68954C23.4263 3.57154 24.6866 3.9109 25.7883 4.72658C27.0157 5.63614 27.7401 6.84544 27.9217 8.34587C28.0731 9.59652 27.7756 10.7481 27.0857 11.8067C27.0343 11.8851 27.0352 11.9273 27.1043 11.9936C27.8198 12.6852 28.5328 13.3803 29.2457 14.0746C29.6433 14.4622 30.0374 14.8541 30.4395 15.2373C30.6343 15.4234 30.6804 15.6465 30.6272 15.8894C30.5068 16.438 29.9772 16.9118 29.4095 16.9927C29.1766 17.0255 28.9835 16.954 28.8161 16.7903C27.7578 15.7576 26.6969 14.7266 25.6359 13.6956C25.573 13.6344 25.5066 13.5758 25.4473 13.5112C25.395 13.4544 25.3508 13.4492 25.2808 13.4889C24.6777 13.836 24.0285 14.0625 23.3342 14.1615C22.3716 14.2985 21.4364 14.1934 20.5304 13.8472C19.7785 13.5595 19.1276 13.1262 18.5785 12.5526C17.7505 11.6887 17.266 10.6689 17.1367 9.49144C17.1173 9.31056 17.1146 9.12968 17.1084 8.94708L17.1102 8.94794ZM22.6098 12.3278C24.4554 12.3545 26.0964 10.8549 26.0929 8.93502C26.0894 7.13054 24.6104 5.55862 22.6213 5.55173C20.6358 5.54484 19.1302 7.09695 19.1205 8.92038C19.1108 10.8205 20.6641 12.3286 22.6098 12.3269V12.3278Z" fill="#117474"/>
<path d="M17.3968 5.68317C17.5748 5.68317 17.7537 5.68317 17.9317 5.68317C18.0229 5.68317 18.0397 5.7159 17.9866 5.78911C17.6332 6.28007 17.3578 6.8072 17.186 7.38515C16.9495 8.18015 16.8769 8.98463 17.0151 9.80462C17.0239 9.85543 17.0673 9.92606 17.0168 9.95879C16.9672 9.99066 16.9159 9.92865 16.868 9.90195C16.4926 9.68661 16.1551 9.42477 15.8381 9.1345C15.754 9.05785 15.7637 9.01564 15.8576 8.95793C16.063 8.83218 16.2632 8.69695 16.481 8.59101C16.559 8.55311 16.5971 8.50918 16.5306 8.42735C16.5041 8.39462 16.4908 8.34984 16.4757 8.30935C16.4235 8.1681 16.4226 8.16465 16.2915 8.23528C16.0506 8.36448 15.8097 8.49454 15.5928 8.66164C15.5113 8.72451 15.452 8.73399 15.374 8.63838C14.8515 7.99238 14.4937 7.27232 14.3131 6.46956C14.2936 6.38343 14.2599 6.34897 14.1643 6.3395C13.7906 6.30332 13.4957 6.06646 13.4089 5.74691C13.3141 5.40065 13.4337 5.05871 13.7241 4.85543C13.834 4.77878 13.9544 4.72107 14.0908 4.70815C14.1749 4.70039 14.2201 4.66939 14.2316 4.57981C14.3033 4.02856 14.4636 3.50143 14.7098 2.99927C14.8542 2.70298 15.0278 2.42391 15.2226 2.15604C15.2669 2.09574 15.3094 2.08196 15.3731 2.1302C15.6707 2.35586 15.986 2.55569 16.3163 2.73399C16.4226 2.7917 16.5315 2.84337 16.6413 2.89333C16.7104 2.92434 16.7219 2.9631 16.6971 3.03373C16.4934 3.60651 16.3748 4.19566 16.3376 4.80117C16.3305 4.91917 16.3128 5.03631 16.319 5.15431C16.3234 5.25423 16.2773 5.28351 16.1808 5.28265C15.8567 5.27921 15.5326 5.28093 15.2084 5.28179C15.0968 5.28179 15.049 5.33376 15.065 5.43769C15.0694 5.4687 15.0756 5.50057 15.0756 5.53157C15.0747 5.70212 15.0738 5.70212 15.2554 5.70298C15.5671 5.70298 15.8797 5.70642 16.1914 5.70126C16.2995 5.69953 16.3385 5.73226 16.3447 5.84165C16.3721 6.355 16.481 6.85543 16.6263 7.34897C16.6493 7.42822 16.6768 7.44717 16.7467 7.38601C16.7945 7.34467 16.8521 7.30849 16.9123 7.28868C17.0062 7.25767 17.0115 7.20513 16.9885 7.12503C16.8619 6.69178 16.783 6.25078 16.7494 5.80117C16.7423 5.70729 16.7759 5.68231 16.8627 5.68317C17.0407 5.68575 17.2196 5.68317 17.3976 5.68317H17.3968Z" fill="#117474"/>
<path d="M20.6066 0.0136719C20.7563 0.0179785 20.9006 0.0575995 21.0441 0.0920526C21.8916 0.299632 22.6453 0.687229 23.3077 1.23934C23.5008 1.40041 23.6699 1.58818 23.8515 1.76303C23.917 1.8259 23.8807 1.86122 23.824 1.90256C23.6035 2.06363 23.3688 2.20316 23.1279 2.33495C23.0031 2.40299 23.0031 2.40471 23.0943 2.51238C23.1146 2.5365 23.1359 2.56061 23.1536 2.58732C23.251 2.72943 23.2484 2.72513 23.3971 2.64675C23.6363 2.52013 23.8559 2.36509 24.0791 2.21608C24.149 2.16957 24.1871 2.17905 24.234 2.24623C24.6078 2.77422 24.8788 3.34701 25.0435 3.96716C25.0524 3.99989 25.0807 4.04123 25.0506 4.06707C25.0169 4.09722 24.985 4.05415 24.954 4.04037C24.3076 3.75269 23.6363 3.57095 22.9216 3.52358C22.144 3.4719 21.3957 3.57526 20.6642 3.82073C20.4419 3.89567 20.2267 3.98783 20.0186 4.09464C19.9309 4.14029 19.891 4.1222 19.8937 4.02315C19.8963 3.9172 19.8955 3.8104 19.8937 3.70359C19.8919 3.62952 19.9114 3.59076 20.0026 3.58818C20.5136 3.57267 21.0184 3.50291 21.5161 3.38749C21.6162 3.36423 21.6773 3.33581 21.6259 3.22384C21.5887 3.14373 21.6383 3.0197 21.5489 2.97836C21.4745 2.9439 21.3797 3.00936 21.2929 3.02918C20.8696 3.12478 20.4383 3.15924 20.0062 3.1911C19.9362 3.19627 19.8972 3.17043 19.8955 3.0998C19.8946 3.06794 19.8937 3.03693 19.8937 3.00506C19.8937 2.06707 19.8937 1.12909 19.8937 0.191966C19.8937 0.164404 19.8937 0.136842 19.8946 0.109279C19.8972 0.045541 19.9273 0.0317597 19.9796 0.0705194C20.0761 0.142871 20.1753 0.211777 20.2656 0.290158C20.8377 0.786282 21.3284 1.34873 21.7109 1.99731C21.7676 2.09291 21.819 2.1911 21.8686 2.29016C21.8996 2.35303 21.9359 2.37371 22.0005 2.32978C22.0369 2.30566 22.0785 2.28757 22.1192 2.26949C22.2893 2.19541 22.2857 2.198 22.2007 2.03951C21.8119 1.31686 21.3027 0.684645 20.6898 0.12909C20.6606 0.102388 20.634 0.0731034 20.6066 0.042957C20.6031 0.0386503 20.6066 0.0283144 20.6066 0.0136719Z" fill="#117474"/>
<path d="M17.5685 5.28581C17.3214 5.28581 17.0743 5.28064 16.8272 5.28839C16.7325 5.29098 16.7316 5.2436 16.7307 5.17986C16.7272 4.86806 16.7626 4.55799 16.8113 4.25135C16.8671 3.90079 16.9468 3.5554 17.0655 3.21862C17.0974 3.12905 17.1319 3.09718 17.2302 3.13508C17.8492 3.37022 18.494 3.50114 19.1537 3.56746C19.1821 3.57004 19.2104 3.57435 19.2388 3.57435C19.5009 3.5778 19.4805 3.55799 19.4814 3.82672C19.4814 3.98434 19.4796 4.14197 19.4814 4.29959C19.4814 4.36505 19.4575 4.4107 19.4008 4.44688C19.0554 4.66996 18.7446 4.93266 18.4647 5.22982C18.4213 5.27547 18.3682 5.2815 18.3098 5.2815C18.0627 5.2815 17.8156 5.2815 17.5685 5.2815C17.5685 5.28322 17.5685 5.28495 17.5685 5.28667V5.28581Z" fill="#117474"/>
<path d="M19.5013 1.57296C19.5013 2.05702 19.4987 2.54195 19.5031 3.02601C19.504 3.13712 19.4686 3.18277 19.3499 3.17588C18.8549 3.14746 18.3704 3.06391 17.894 2.93127C17.7195 2.88217 17.5486 2.81757 17.375 2.76589C17.282 2.73833 17.2634 2.69526 17.3024 2.60999C17.545 2.07769 17.8523 1.58501 18.2323 1.13454C18.5697 0.734885 18.9452 0.372266 19.3658 0.0544369C19.3977 0.0303198 19.4278 -0.0127465 19.4686 0.00361866C19.5199 0.0234292 19.4996 0.0794154 19.5005 0.119898C19.5013 0.603963 19.5005 1.08889 19.5005 1.57296H19.5013Z" fill="#117474"/>
<path d="M18.7277 0.0435566C18.5151 0.248552 18.3097 0.442351 18.1184 0.650792C17.626 1.18826 17.2363 1.7886 16.9334 2.44235C16.8909 2.53279 16.8564 2.55174 16.7634 2.50695C16.3631 2.31315 15.9858 2.08318 15.6298 1.82133C15.5687 1.77655 15.5705 1.74037 15.621 1.68783C16.2373 1.03236 16.9759 0.556046 17.8323 0.250275C18.0723 0.164142 18.3185 0.100404 18.5674 0.0452792C18.6143 0.0349433 18.6613 0.0194394 18.7277 0.0435566Z" fill="#117474"/>
<path d="M25.0008 6.76961C24.9344 6.997 24.8582 7.22094 24.7582 7.43713C24.5695 7.84454 24.3481 8.23214 24.0594 8.58184C24.0063 8.64558 23.9682 8.65247 23.9 8.60682C23.4953 8.33636 23.0658 8.10811 22.6123 7.92292C22.5433 7.8945 22.5211 7.86091 22.5512 7.7877C22.7469 7.30966 22.8647 6.81095 22.9409 6.30277C22.9639 6.15117 22.9746 5.99786 22.987 5.84454C22.9931 5.76961 23.0117 5.73343 23.1047 5.74807C23.823 5.86177 24.4411 6.16582 24.9557 6.66711C24.9849 6.69553 25.0141 6.72396 25.0017 6.76961H25.0008Z" fill="#117474"/>
<path d="M19.8936 9.16814C19.8936 8.7504 19.8936 8.33265 19.8936 7.91491C19.8936 7.77193 19.9104 7.76935 20.0574 7.77537C20.5534 7.79519 21.0405 7.86495 21.5214 7.98123C21.6356 8.00879 21.7472 8.04497 21.8597 8.07512C21.9411 8.09751 21.9597 8.13799 21.9216 8.21465C21.6489 8.76935 21.2946 9.27236 20.8695 9.72542C20.6109 10.0019 20.3399 10.2689 20.0282 10.492C19.9954 10.5153 19.9653 10.5695 19.9166 10.542C19.8785 10.5204 19.8927 10.4705 19.8927 10.4317C19.8927 10.0105 19.8927 9.58847 19.8927 9.16728L19.8936 9.16814Z" fill="#117474"/>
<path d="M19.8935 7.19845C19.8829 7.11921 19.9183 7.046 19.9767 6.97364C20.4346 6.40689 21.0217 6.02705 21.7302 5.82377C21.98 5.75228 22.2403 5.73678 22.4981 5.71008C22.5592 5.70405 22.5848 5.72989 22.5804 5.79363C22.5414 6.42756 22.3962 7.03997 22.1766 7.63687C22.1465 7.71783 22.1048 7.73506 22.0207 7.70922C21.5752 7.57485 21.1227 7.46719 20.6569 7.42153C20.4594 7.40259 20.2628 7.38019 20.0635 7.38105C19.9032 7.38191 19.8935 7.36899 19.8935 7.19759V7.19845Z" fill="#117474"/>
<path d="M20.5918 10.5627C20.6724 10.4869 20.753 10.4111 20.8336 10.3353C21.442 9.76859 21.9344 9.11829 22.2966 8.37755C22.3462 8.27677 22.3922 8.25955 22.4994 8.3052C22.8838 8.46713 23.246 8.66696 23.5967 8.88832C23.7198 8.96584 23.7198 8.971 23.6215 9.06747C22.8262 9.84956 21.8733 10.3457 20.7663 10.5653C20.7149 10.5757 20.6635 10.5808 20.6113 10.5886C20.6051 10.58 20.598 10.5713 20.5918 10.5627Z" fill="#117474"/>
<path d="M19.4896 7.92114V9.95301C19.4781 9.95301 19.4675 9.95301 19.456 9.95301C19.2142 9.27515 19.2337 8.59642 19.4896 7.92114Z" fill="#117474"/>
<path d="M10.6069 0.208496H11.7033V11.9079H8.56738V6.70807L6.01417 9.30841H5.67144L3.13506 6.70807V11.9079H0V0.208496H1.13092L5.82642 5.27482L10.6069 0.208496Z" fill="#0A1D17"/>
<path d="M36.2519 8.47493C36.2519 7.65839 35.2582 7.47493 34.0582 7.40861C31.4537 7.22514 29.74 6.35865 29.7055 3.82549C29.6027 -1.20811 38.9246 -1.20811 38.8565 3.82549H35.9437C35.9437 2.2751 32.7218 2.4086 32.6191 3.79189C32.5509 4.67562 33.4418 4.85822 34.5214 4.97536C36.9037 5.22514 39.2337 5.5757 39.2337 8.49215C39.2337 13.3922 29.4663 13.4758 29.5345 8.34228H32.4996C32.4996 9.82549 36.2528 9.84185 36.2528 8.47579L36.2519 8.47493Z" fill="#0A1D17"/>
<path d="M52.0692 0.208496H53.1656V11.9079H50.0297V6.70807L47.4765 9.30841H47.1338L44.5974 6.70807V11.9079H41.4614V0.208496H42.5923L47.2878 5.27482L52.0692 0.208496Z" fill="#0A1D17"/>
<path d="M63.138 10.4408H58.408L57.7057 11.9076H54.707V11.4744L60.1048 0.0910645H61.4244L66.839 11.4744V11.9076H63.8403L63.138 10.4408ZM60.7557 4.82405L59.4016 7.89038H62.1435L60.7557 4.82405Z" fill="#0A1D17"/>
<path d="M68.416 11.9076V0.240967H73.6942C79.4348 0.257332 79.4348 8.924 73.6942 8.924H71.4838V11.9076H68.416ZM73.6765 2.90763C72.9565 2.89127 72.1861 2.90763 71.4829 2.90763V6.24097H73.6765C75.3556 6.24097 75.4584 2.924 73.6765 2.90763Z" fill="#0A1D17"/>
</g>
<defs>
<clipPath id="clip0_40002001_3802">
<rect width="78" height="17" fill="white"/>
</clipPath>
</defs>
</svg>
