<svg width="16" height="17" viewBox="0 0 16 17" fill="none" xmlns="http://www.w3.org/2000/svg">
<path fill-rule="evenodd" clip-rule="evenodd" d="M6 2.26072C4.93913 2.26072 3.92172 2.68214 3.17157 3.43229C2.42143 4.18243 2 5.19985 2 6.26072C2 7.32158 2.42143 8.339 3.17157 9.08914C3.92172 9.83929 4.93913 10.2607 6 10.2607C7.06087 10.2607 8.07828 9.83929 8.82843 9.08914C9.57857 8.339 10 7.32158 10 6.26072C10 5.19985 9.57857 4.18243 8.82843 3.43229C8.07828 2.68214 7.06087 2.26072 6 2.26072ZM1.13461e-07 6.26072C-0.00012039 5.31642 0.222642 4.38543 0.650171 3.54346C1.0777 2.70149 1.69792 1.97231 2.4604 1.41524C3.22287 0.858168 4.10606 0.488927 5.03815 0.337548C5.97023 0.186169 6.92488 0.256926 7.82446 0.544065C8.72404 0.831204 9.54315 1.32662 10.2152 1.99001C10.8872 2.65341 11.3931 3.46605 11.6919 4.36185C11.9906 5.25765 12.0737 6.21131 11.9343 7.14527C11.795 8.07923 11.4372 8.96711 10.89 9.73672L15.707 14.5537C15.8892 14.7423 15.99 14.9949 15.9877 15.2571C15.9854 15.5193 15.8802 15.7701 15.6948 15.9555C15.5094 16.1409 15.2586 16.2461 14.9964 16.2484C14.7342 16.2507 14.4816 16.1499 14.293 15.9677L9.477 11.1517C8.57936 11.79 7.52335 12.1689 6.42468 12.2468C5.326 12.3248 4.22707 12.0988 3.2483 11.5937C2.26953 11.0886 1.44869 10.3237 0.875723 9.38307C0.30276 8.44239 -0.000214051 7.36215 1.13461e-07 6.26072Z" fill="#B0BABF"/>
</svg>
