<svg width="20" height="20" viewBox="0 0 20 20" fill="none" xmlns="http://www.w3.org/2000/svg">
<g clip-path="url(#clip0_186_1210)">
<path fill-rule="evenodd" clip-rule="evenodd" d="M11.0695 1.09487C11.0695 0.810706 10.9566 0.538184 10.7557 0.337252C10.5548 0.13632 10.2823 0.0234375 9.9981 0.0234375C9.71394 0.0234375 9.44142 0.13632 9.24049 0.337252C9.03956 0.538184 8.92667 0.810706 8.92667 1.09487V2.84201C7.39465 3.07236 5.97685 3.78788 4.88149 4.88349C3.78613 5.9791 3.07095 7.39707 2.84096 8.92915H1.09096C0.806799 8.92915 0.534277 9.04203 0.333345 9.24297C0.132414 9.4439 0.0195313 9.71642 0.0195312 10.0006C0.0195313 10.2847 0.132414 10.5573 0.333345 10.7582C0.534277 10.9591 0.806799 11.072 1.09096 11.072H2.8381C3.06845 12.604 3.78397 14.0218 4.87958 15.1172C5.97519 16.2125 7.39316 16.9277 8.92525 17.1577V18.9063C8.92525 19.1905 9.03813 19.463 9.23906 19.6639C9.43999 19.8648 9.71251 19.9777 9.99667 19.9777C10.2808 19.9777 10.5534 19.8648 10.7543 19.6639C10.9552 19.463 11.0681 19.1905 11.0681 18.9063V17.1592C12.6001 16.9288 14.0179 16.2133 15.1133 15.1177C16.2086 14.0221 16.9238 12.6041 17.1538 11.072H18.9024C19.1865 11.072 19.4591 10.9591 19.66 10.7582C19.8609 10.5573 19.9738 10.2847 19.9738 10.0006C19.9738 9.71642 19.8609 9.4439 19.66 9.24297C19.4591 9.04203 19.1865 8.92915 18.9024 8.92915H17.1552C16.925 7.39733 16.2097 5.97968 15.1143 4.88435C14.019 3.78902 12.6014 3.07371 11.0695 2.84344V1.09487ZM15.0924 9.99201C15.0907 8.98519 14.7907 8.00144 14.2303 7.16501C13.6699 6.32857 12.8742 5.67695 11.9436 5.29244C11.0131 4.90793 9.98956 4.80777 9.00216 5.00461C8.01477 5.20144 7.10784 5.68645 6.39591 6.39838C5.68397 7.11032 5.19897 8.01724 5.00213 9.00464C4.80529 9.99203 4.90545 11.0156 5.28996 11.9461C5.67448 12.8766 6.32609 13.6723 7.16253 14.2328C7.99897 14.7932 8.98271 15.0932 9.98953 15.0949H10.0067C11.3548 15.0926 12.647 14.5561 13.6003 13.6028C14.5536 12.6495 15.0901 11.3573 15.0924 10.0092V9.99201ZM8.24096 10.0006C8.24096 9.53456 8.42609 9.08762 8.75562 8.75809C9.08514 8.42857 9.53208 8.24344 9.9981 8.24344C10.4641 8.24344 10.9111 8.42857 11.2406 8.75809C11.5701 9.08762 11.7552 9.53456 11.7552 10.0006C11.7552 10.4666 11.5701 10.9135 11.2406 11.2431C10.9111 11.5726 10.4641 11.7577 9.9981 11.7577C9.53208 11.7577 9.08514 11.5726 8.75562 11.2431C8.42609 10.9135 8.24096 10.4666 8.24096 10.0006Z" fill="#117474"/>
</g>
<defs>
<clipPath id="clip0_186_1210">
<rect width="20" height="20" fill="white"/>
</clipPath>
</defs>
</svg>
