<svg width="20" height="24" viewBox="0 0 20 24" fill="none" xmlns="http://www.w3.org/2000/svg">
<path d="M10.711 21.4625L4.44069 18.0861C4.15537 17.9325 4.1616 17.5211 4.45145 17.3762L6.89798 16.1529C7.01059 16.0966 7.14314 16.0966 7.25575 16.1529L13.147 19.0986C13.4081 19.2291 13.446 19.5863 13.218 19.7687L11.1506 21.4226C11.0253 21.5229 10.8523 21.5385 10.711 21.4625Z" fill="#117474"/>
<path d="M16.8503 20.6585L13.9218 21.3961C13.6527 21.4639 13.398 21.2437 13.4262 20.9676L13.5213 20.036C13.5378 19.8737 13.6513 19.7377 13.808 19.6924L16.5153 18.9093C16.7509 18.8411 16.9918 18.9991 17.0232 19.2423L17.1493 20.2194C17.1752 20.4204 17.0468 20.609 16.8503 20.6585Z" fill="#117474"/>
<path d="M14.2586 11.644L18.5421 13.7858C19.1526 14.091 19.2847 14.9047 18.802 15.3873L17.4996 16.6897C17.2105 16.9789 17.1265 17.4149 17.2876 17.7908L18.231 19.992C18.4683 20.5457 18.1658 21.182 17.5865 21.3475L11.3423 23.1316C11.0872 23.2044 10.8137 23.173 10.5819 23.0442L1.83698 18.1859C1.36896 17.9259 1.18876 17.3434 1.42819 16.8645L2.97546 13.77C3.12221 13.4765 3.40361 13.2737 3.72846 13.2273L7.07688 12.7489" stroke="#117474"/>
<path fill-rule="evenodd" clip-rule="evenodd" d="M12.5304 13.5736C14.1221 11.04 16.0067 8.04014 15.3636 3.90973C14.9834 1.46854 12.6013 0.226746 10.944 0.0426154C8.62832 -0.214658 6.382 0.674141 5.46638 3.22218C5.43652 3.30526 5.40233 3.38683 5.3682 3.46827C5.36574 3.47413 5.36329 3.48 5.36083 3.48586C4.8477 4.71114 4.64728 8.0627 7.62937 12.7489C8.36594 13.8537 9.94958 16.0635 10.3916 16.0635C10.7735 16.0635 11.5958 15.0067 11.8119 14.7198C11.8478 14.6722 11.8799 14.6235 11.9108 14.5724C12.1074 14.2469 12.3162 13.9145 12.5304 13.5736ZM10.3916 7.77677C11.9171 7.77677 13.1538 6.54008 13.1538 5.01455C13.1538 3.48902 11.9171 2.25233 10.3916 2.25233C8.86602 2.25233 7.62934 3.48902 7.62934 5.01455C7.62934 6.54008 8.86602 7.77677 10.3916 7.77677Z" fill="#117474"/>
<path d="M13.6113 18.2163L11.3446 16.8562C11.1341 16.7299 11.086 16.4457 11.2431 16.2571L13.5315 13.511C13.6369 13.3845 13.8085 13.3351 13.9643 13.3885C15.1374 13.7901 17.1635 14.5487 17.5734 14.9586C17.9873 15.3725 16.8185 16.1417 16.0634 16.5402C15.9696 16.5897 15.8972 16.6725 15.8637 16.7731L15.4548 17.9998C15.4004 18.1631 15.2475 18.2733 15.0753 18.2733H13.8171C13.7446 18.2733 13.6735 18.2536 13.6113 18.2163Z" fill="#117474"/>
</svg>
